<?xml version="1.0" encoding="UTF-8" standalone="no"?>
<svg width="107px" height="44px" viewBox="0 0 107 44" version="1.1" xmlns="http://www.w3.org/2000/svg" xmlns:xlink="http://www.w3.org/1999/xlink" xmlns:sketch="http://www.bohemiancoding.com/sketch/ns">
    <!-- Generator: Sketch 3.3.3 (12072) - http://www.bohemiancoding.com/sketch -->
    <title>pillar-logo copy</title>
    <desc>Created with Sketch.</desc>
    <defs></defs>
    <g id="Page-1" stroke="none" stroke-width="1" fill="none" fill-rule="evenodd" sketch:type="MSPage">
        <g id="Group" sketch:type="MSLayerGroup" transform="translate(0.000000, -1.000000)" fill="#000000">
            <path d="M7,12.5336066 L7,10 L0,10 L0,45 L7,45 L7,34.4663934 C8.97023715,36.060893 11.387634,37 14,37 C20.627417,37 26,30.9558441 26,23.5 C26,16.0441559 20.627417,10 14,10 C11.387634,10 8.97023715,10.939107 7,12.5336066 L7,12.5336066 Z M13,31 C16.8659932,31 20,27.418278 20,23 C20,18.581722 16.8659932,15 13,15 C9.13400675,15 6,18.581722 6,23 C6,27.418278 9.13400675,31 13,31 Z" id="Rectangle-1" sketch:type="MSShapeGroup"></path>
            <path d="M35.3286672,1 C36.3481665,1.82497775 37,3.08636695 37,4.5 C37,6.98528137 34.9852814,9 32.5,9 C30.0147186,9 28,6.98528137 28,4.5 C28,3.08636695 28.6518335,1.82497775 29.6713328,1 L35.3286672,1 L35.3286672,1 Z M29,10 L36,10 L36,36 L29,36 L29,10 Z" id="Oval-3" sketch:type="MSShapeGroup"></path>
            <path d="M47,10.6180533 L47,36 L47,36 L40,36 L40,1 L42.2835393,1 L42.2835393,1 C42.844247,3.90466911 44.200117,6.38371008 46.0233073,8 L46.0233073,8 L45,8 L45,10 L45.3414114,10 C45.6805769,10.2398968 46.2569184,10.4517842 47,10.6180533 Z M55,10.6180533 L55,36 L55,36 L62,36 L62,1 L59.7164607,1 C59.155753,3.90466911 57.799883,6.38371008 55.9766927,8 L55.9766927,8 L57,8 L57,10 L56.6585886,10 C56.3194231,10.2398968 55.7430816,10.4517842 55,10.6180533 Z" id="Rectangle-13" sketch:type="MSShapeGroup"></path>
            <path d="M84,33.5602307 L84,36 L91,36 L91,10 L84,10 L84,12.4397693 C82.0297629,10.9043253 79.612366,10 77,10 C70.372583,10 65,15.8202983 65,23 C65,30.1797017 70.372583,36 77,36 C79.612366,36 82.0297629,35.0956747 84,33.5602307 L84,33.5602307 Z M78,30 C81.8659932,30 85,26.8659932 85,23 C85,19.1340068 81.8659932,16 78,16 C74.1340068,16 71,19.1340068 71,23 C71,26.8659932 74.1340068,30 78,30 Z" id="Rectangle-5" sketch:type="MSShapeGroup"></path>
            <path d="M101,10.9640322 C101.414013,10.6154718 101.848141,10.2933422 102.300196,10 L107,10 L107,15.0176965 C106.834419,15.0059474 106.667717,15 106.5,15 C104.450255,15 102.55213,15.888324 101,17.3989846 L101,36 L94,36 L94,10 L101,10 L101,10.9640322 Z" id="Oval-6" sketch:type="MSShapeGroup"></path>
        </g>
    </g>
</svg>